<svg version="1" xmlns="http://www.w3.org/2000/svg" width="933.333" height="933.333" viewBox="0 0 700.000000 700.000000"><path d="M0 350v350h700V0H0v350zm361.7-202.2c7.5 2.4 151.1 85.1 157 90.5 2.3 2.1 5.5 6 7.2 8.5 6.3 10 6.1 6.8 6.1 103.4 0 86.2 0 88-2.1 94-2.3 6.8-6 12.6-11.1 17.5-4.7 4.5-147.9 87.2-155.8 90-8.6 3-17.4 3-26 0-8.6-3.1-151.3-85.7-156.3-90.5-5.2-5-9.2-11.6-11.1-18.1-1.4-4.8-1.6-16-1.6-93.1 0-96.4-.2-93.2 6.1-103.2 1.7-2.5 4.9-6.4 7.2-8.5 5.5-5 149.4-88.1 156.6-90.4 7.3-2.3 16.5-2.4 23.8-.1z"/><path d="M334.2 289c-21.2 5.6-37.4 21.1-44.8 43-2.8 8.3-2.7 27.1.3 36.5 6.3 19.7 22.1 35.5 41.8 41.8 5.5 1.7 9.4 2.2 18.5 2.2 13.4 0 21.5-2.1 31.9-8.2 35.3-20.9 41.6-69.7 12.7-98.6-15.9-15.9-39-22.3-60.4-16.7z"/></svg>